<?xml version="1.0" standalone="no"?><!DOCTYPE svg PUBLIC "-//W3C//DTD SVG 1.1//EN" "http://www.w3.org/Graphics/SVG/1.1/DTD/svg11.dtd"><svg t="1693505201709" class="icon" viewBox="0 0 1296 1024" version="1.1" xmlns="http://www.w3.org/2000/svg" p-id="4031" xmlns:xlink="http://www.w3.org/1999/xlink" width="253.125" height="200"><path d="M335.40895544 171.88631876h789.46584577a33.50873693 33.50873693 0 1 0 0-67.0174747H335.40895544a33.50873693 33.50873693 0 1 0 0 67.0174747z" fill="#515151" p-id="4032"></path><path d="M138.37758181 138.37758181m-48.25258181 0a48.25258181 48.25258181 0 1 0 96.50516281 0 48.25258181 48.25258181 0 1 0-96.50516281 0Z" fill="#515151" p-id="4033"></path><path d="M1124.8748012 478.15617566H335.40895544a33.50873693 33.50873693 0 0 0 0 67.01747387h789.46584577a33.50873693 33.50873693 0 0 0 0-67.01747387z" fill="#515151" p-id="4034"></path><path d="M138.37758181 511.6649126m-48.25258181 0a48.25258181 48.25258181 0 1 0 96.50516281 0 48.25258181 48.25258181 0 1 0-96.50516281 0Z" fill="#515151" p-id="4035"></path><path d="M1124.8748012 852.11368124H335.40895544a33.50873693 33.50873693 0 0 0 0 67.0174747h789.46584577a33.50873693 33.50873693 0 0 0 0-67.0174747z" fill="#515151" p-id="4036"></path><path d="M138.37758181 885.62241819m-48.25258181 0a48.25258181 48.25258181 0 1 0 96.50516281 0 48.25258181 48.25258181 0 1 0-96.50516281 0Z" fill="#515151" p-id="4037"></path></svg>