<?xml version="1.0" standalone="no"?><!DOCTYPE svg PUBLIC "-//W3C//DTD SVG 1.1//EN" "http://www.w3.org/Graphics/SVG/1.1/DTD/svg11.dtd"><svg t="1693474636392" class="icon" viewBox="0 0 1024 1024" version="1.1" xmlns="http://www.w3.org/2000/svg" p-id="47328" xmlns:xlink="http://www.w3.org/1999/xlink" width="200" height="200"><path d="M512 960c-246.9888 0-448-201.0112-448-448S265.0112 64 512 64 960 265.0112 960 512 758.9888 960 512 960z m0 0" fill="#FFEEA3" p-id="47329"></path><path d="M512 76.8c240 0 435.2 195.2 435.2 435.2s-195.2 435.2-435.2 435.2S76.8 752 76.8 512 272 76.8 512 76.8m0-25.6C257.408 51.2 51.2 257.408 51.2 512s206.208 460.8 460.8 460.8 460.8-206.208 460.8-460.8S766.592 51.2 512 51.2z m0 0" fill="#F5C276" p-id="47330"></path><path d="M720.512 101.376l-174.4128 274.1248L716.8 341.2992l-204.8 238.8992 170.7008-34.0992-358.8096 386.4064c8.3968 3.6864 16.896 6.9888 25.4208 10.1888l352.0768-379.0848 54.016-58.112-77.696 15.5136-97.9968 19.584 156.5952-182.6048 48.2048-56.2944-72.704 14.5152-111.8976 22.4 143.1808-224.9216c-7.3984-4.3008-14.8992-8.3968-22.5792-12.288z m0 0" fill="#F5C276" p-id="47331"></path><path d="M303.488 922.624l174.4128-274.1248L307.2 682.7008l204.8-238.8992-170.7008 34.0992L700.1088 91.4944c-8.3968-3.6864-16.896-6.9888-25.4208-10.1888L322.6112 460.3904l-53.9136 58.112 77.696-15.5136 97.8944-19.584-156.4928 182.6048-48.3072 56.2944 72.704-14.5152 111.8976-22.4-143.104 224.9216c7.3216 4.3008 14.8224 8.3968 22.528 12.288z m0 0" fill="#F5C276" p-id="47332"></path><path d="M512 883.2c-204.6976 0-371.2-166.5024-371.2-371.2S307.3024 140.8 512 140.8 883.2 307.3024 883.2 512 716.6976 883.2 512 883.2z m0 0" fill="#F78F8F" p-id="47333"></path><path d="M512 153.6c197.6064 0 358.4 160.7936 358.4 358.4s-160.7936 358.4-358.4 358.4S153.6 709.6064 153.6 512 314.3936 153.6 512 153.6m0-25.6C299.904 128 128 299.904 128 512s171.904 384 384 384 384-171.904 384-384S724.096 128 512 128z m0 0" fill="#C74343" p-id="47334"></path><path d="M785.1008 0L332.8 486.4l179.2-25.6-204.8 230.4 153.6-25.6-221.9008 358.4L691.2 537.6l-179.2 51.2 204.8-256-153.6 25.6z m0 0" fill="#FFEEA3" p-id="47335"></path></svg>